<svg width="33" height="33" viewBox="0 0 33 33" fill="none" xmlns="http://www.w3.org/2000/svg">
<path fill-rule="evenodd" clip-rule="evenodd" d="M28.6223 4.37961L5.02193 12.913L12.8843 17.4636L19.8171 10.529C20.1688 10.1775 20.6457 9.9802 21.1429 9.98037C21.64 9.98055 22.1168 10.1782 22.4682 10.5299C22.8197 10.8816 23.017 11.3585 23.0168 11.8556C23.0166 12.3528 22.819 12.8296 22.4673 13.181L15.5326 20.1157L20.087 27.9762L28.6223 4.37961ZM29.2276 0.173836C31.4673 -0.637707 33.6377 1.53265 32.8262 3.77236L22.9265 31.1455C22.1131 33.3908 19.0468 33.6645 17.8492 31.5972L11.8198 21.1802L1.40279 15.1508C-0.664486 13.9532 -0.390847 10.8869 1.85448 10.0735L29.2276 0.173836Z" fill="#F8F8F8"/>
</svg>
