<svg width="25" height="25" viewBox="0 0 25 25" fill="none" xmlns="http://www.w3.org/2000/svg">
<path fill-rule="evenodd" clip-rule="evenodd" d="M12.5 0C12.8315 0 13.1495 0.131696 13.3839 0.366116C13.6183 0.600537 13.75 0.918479 13.75 1.25V2.5775C14.6548 2.68985 15.5397 2.92624 16.38 3.28L17.0425 2.1325C17.124 1.98919 17.233 1.86342 17.3633 1.76242C17.4936 1.66141 17.6425 1.58718 17.8016 1.54399C17.9607 1.5008 18.1268 1.4895 18.2903 1.51075C18.4537 1.53199 18.6114 1.58537 18.7542 1.6678C18.8969 1.75022 19.022 1.86007 19.1221 1.99103C19.2222 2.12198 19.2955 2.27144 19.3376 2.43082C19.3798 2.59019 19.39 2.75633 19.3676 2.91966C19.3453 3.08299 19.2909 3.24029 19.2075 3.3825L18.5437 4.5325C19.2687 5.0825 19.9162 5.73125 20.4688 6.4575L21.6188 5.7925C21.761 5.70913 21.9183 5.65471 22.0816 5.63238C22.2449 5.61005 22.4111 5.62024 22.5704 5.66238C22.7298 5.70451 22.8793 5.77776 23.0102 5.87789C23.1412 5.97803 23.251 6.10308 23.3335 6.24584C23.4159 6.3886 23.4693 6.54626 23.4905 6.70974C23.5118 6.87321 23.5005 7.03927 23.4573 7.19837C23.4141 7.35746 23.3398 7.50643 23.2388 7.63672C23.1378 7.767 23.0121 7.87602 22.8688 7.9575L21.7188 8.62C22.0675 9.44625 22.3075 10.3288 22.4225 11.25H23.75C24.0815 11.25 24.3995 11.3817 24.6339 11.6161C24.8683 11.8505 25 12.1685 25 12.5C25 12.8315 24.8683 13.1495 24.6339 13.3839C24.3995 13.6183 24.0815 13.75 23.75 13.75H22.4225C22.3101 14.6547 22.0737 15.5397 21.72 16.38L22.8675 17.0425C23.0108 17.124 23.1366 17.233 23.2376 17.3633C23.3386 17.4936 23.4128 17.6425 23.456 17.8016C23.4992 17.9607 23.5105 18.1268 23.4893 18.2903C23.468 18.4537 23.4146 18.6114 23.3322 18.7542C23.2498 18.8969 23.1399 19.022 23.009 19.1221C22.878 19.2222 22.7286 19.2955 22.5692 19.3376C22.4098 19.3798 22.2437 19.39 22.0803 19.3676C21.917 19.3453 21.7597 19.2909 21.6175 19.2075L20.4675 18.5437C19.9161 19.2697 19.2685 19.9173 18.5425 20.4688L19.2075 21.6188C19.2909 21.761 19.3453 21.9183 19.3676 22.0816C19.39 22.2449 19.3798 22.4111 19.3376 22.5704C19.2955 22.7298 19.2222 22.8793 19.1221 23.0102C19.022 23.1412 18.8969 23.251 18.7542 23.3335C18.6114 23.4159 18.4537 23.4693 18.2903 23.4905C18.1268 23.5118 17.9607 23.5005 17.8016 23.4573C17.6425 23.4141 17.4936 23.3398 17.3633 23.2388C17.233 23.1378 17.124 23.0121 17.0425 22.8688L16.38 21.7188C15.5399 22.0732 14.6549 22.31 13.75 22.4225V23.75C13.75 24.0815 13.6183 24.3995 13.3839 24.6339C13.1495 24.8683 12.8315 25 12.5 25C12.1685 25 11.8505 24.8683 11.6161 24.6339C11.3817 24.3995 11.25 24.0815 11.25 23.75V22.4225C10.3452 22.3101 9.46028 22.0737 8.62 21.72L7.9575 22.8675C7.87602 23.0108 7.767 23.1366 7.63672 23.2376C7.50643 23.3386 7.35746 23.4128 7.19837 23.456C7.03927 23.4992 6.87321 23.5105 6.70974 23.4893C6.54626 23.468 6.3886 23.4146 6.24584 23.3322C6.10308 23.2498 5.97803 23.1399 5.87789 23.009C5.77776 22.878 5.70451 22.7286 5.66238 22.5692C5.62024 22.4098 5.61005 22.2437 5.63238 22.0803C5.65471 21.917 5.70913 21.7597 5.7925 21.6175L6.45625 20.4675C5.7303 19.916 5.08271 19.2684 4.53125 18.5425L3.38125 19.2075C3.23904 19.2909 3.08174 19.3453 2.91841 19.3676C2.75508 19.39 2.58894 19.3798 2.42957 19.3376C2.27019 19.2955 2.12073 19.2222 1.98978 19.1221C1.85882 19.022 1.74897 18.8969 1.66655 18.7542C1.58412 18.6114 1.53074 18.4537 1.5095 18.2903C1.48825 18.1268 1.49955 17.9607 1.54274 17.8016C1.58593 17.6425 1.66016 17.4936 1.76117 17.3633C1.86217 17.233 1.98794 17.124 2.13125 17.0425L3.28125 16.38C2.92665 15.5398 2.68942 14.6549 2.57625 13.75H1.25C0.918479 13.75 0.600537 13.6183 0.366116 13.3839C0.131696 13.1495 0 12.8315 0 12.5C0 12.1685 0.131696 11.8505 0.366116 11.6161C0.600537 11.3817 0.918479 11.25 1.25 11.25H2.5775C2.68985 10.3452 2.92624 9.46027 3.28 8.62L2.1325 7.9575C1.84774 7.79056 1.64057 7.51777 1.5562 7.19865C1.47183 6.87953 1.51711 6.53999 1.68216 6.25413C1.8472 5.96827 2.11862 5.7593 2.43717 5.67281C2.75572 5.58633 3.09555 5.62935 3.3825 5.7925L4.5325 6.45625C5.0825 5.73125 5.73125 5.08375 6.4575 4.53125L5.7925 3.38125C5.62935 3.0943 5.58633 2.75447 5.67281 2.43592C5.7593 2.11737 5.96827 1.84595 6.25413 1.68091C6.53999 1.51586 6.87953 1.47058 7.19865 1.55495C7.51777 1.63932 7.79056 1.84649 7.9575 2.13125L8.62 3.28125C9.46015 2.92663 10.3451 2.6894 11.25 2.57625V1.25C11.25 0.918479 11.3817 0.600537 11.6161 0.366116C11.8505 0.131696 12.1685 0 12.5 0ZM12.5 13.9437L6.72 17.2812C7.27914 17.9546 7.95074 18.526 8.705 18.97L8.79625 19.0237C9.92492 19.6657 11.2015 20.0022 12.5 20C13.7125 20 14.8575 19.7125 15.8712 19.2013L16.2962 18.97C17.0506 18.5261 17.7219 17.9542 18.28 17.28L12.5 13.9437ZM11.25 5.10375C10.5092 5.22797 9.79153 5.46355 9.12125 5.8025L8.79625 5.9775L8.705 6.03C7.71208 6.6141 6.86626 7.41802 6.2325 8.38L6.03 8.705L5.9775 8.79625C5.33512 9.92482 4.9982 11.2014 5 12.5C5 13.2875 5.12125 14.05 5.3475 14.7625L5.46875 15.1163L11.25 11.7788V5.10375ZM13.75 5.10375V11.7788L19.5312 15.1163C19.8423 14.2791 20.0011 13.3931 20 12.5C20 11.2875 19.7125 10.1425 19.2013 9.12875L19.0225 8.79625L18.9825 8.7275L18.97 8.705C18.3859 7.71211 17.582 6.86629 16.62 6.2325L16.2038 5.97625C15.5544 5.60681 14.8533 5.33712 14.1237 5.17625L13.75 5.10375Z" fill="white"/>
</svg>
