<svg width="33" height="34" viewBox="0 0 33 34" fill="none" xmlns="http://www.w3.org/2000/svg">
<path d="M13.9213 0.886929C14.6526 0.312827 15.5617 0 16.4988 0C17.4359 0 18.345 0.312827 19.0764 0.886929L31.4514 10.588C32.4296 11.3549 33 12.5167 33 13.7455V29.9579C33 31.0299 32.5654 32.058 31.7918 32.8161C31.0182 33.5741 29.969 34 28.875 34H20.625C20.1561 34 19.7065 33.8175 19.3749 33.4926C19.0434 33.1677 18.8571 32.7271 18.8571 32.2677V20.1413H14.1429V32.2677C14.1429 32.7271 13.9566 33.1677 13.6251 33.4926C13.2935 33.8175 12.8439 34 12.375 34H4.125C3.03098 34 1.98177 33.5741 1.20818 32.8161C0.434597 32.058 0 31.0299 0 29.9579V13.7432C0 12.5167 0.570428 11.3549 1.54864 10.588L13.9213 0.886929ZM16.8677 3.59169C16.7633 3.50998 16.6336 3.46547 16.5 3.46547C16.3664 3.46547 16.2367 3.50998 16.1323 3.59169L3.75729 13.2928C3.68796 13.347 3.63202 13.4159 3.59366 13.4943C3.55529 13.5727 3.53549 13.6586 3.53571 13.7455V29.9579C3.53571 30.2766 3.79971 30.5353 4.125 30.5353H10.6071V18.409C10.6071 17.9495 10.7934 17.5089 11.1249 17.184C11.4565 16.8591 11.9061 16.6766 12.375 16.6766H20.625C21.0939 16.6766 21.5435 16.8591 21.8751 17.184C22.2066 17.5089 22.3929 17.9495 22.3929 18.409V30.5353H28.875C29.0313 30.5353 29.1812 30.4745 29.2917 30.3662C29.4022 30.2579 29.4643 30.111 29.4643 29.9579V13.7432C29.4642 13.6566 29.4442 13.5712 29.4058 13.4933C29.3675 13.4153 29.3117 13.3468 29.2427 13.2928L16.8677 3.59169Z" fill="white"/>
</svg>
