<svg width="30" height="38" viewBox="0 0 30 38" fill="none" xmlns="http://www.w3.org/2000/svg">
<path d="M19.2994 0.556642C19.651 0.200224 20.1278 0 20.625 0C21.1222 0 21.599 0.200224 21.9506 0.556642L29.4506 8.1614C29.8021 8.51792 29.9996 9.00141 29.9996 9.50554C29.9996 10.0097 29.8021 10.4932 29.4506 10.8497L21.9506 18.4544C21.597 18.8007 21.1234 18.9924 20.6317 18.988C20.1401 18.9837 19.6699 18.7838 19.3222 18.4313C18.9746 18.0788 18.7774 17.6019 18.7731 17.1034C18.7688 16.605 18.9578 16.1247 19.2994 15.7661L23.5988 11.4067H1.875C1.37772 11.4067 0.900806 11.2064 0.549175 10.8499C0.197544 10.4933 0 10.0098 0 9.50554C0 9.00131 0.197544 8.51773 0.549175 8.16119C0.900806 7.80465 1.37772 7.60435 1.875 7.60435H23.5988L19.2994 3.24492C18.9479 2.8884 18.7504 2.40491 18.7504 1.90078C18.7504 1.39666 18.9479 0.913167 19.2994 0.556642ZM10.7006 19.5685C11.0521 19.9251 11.2496 20.4085 11.2496 20.9127C11.2496 21.4168 11.0521 21.9003 10.7006 22.2568L6.40125 26.6162H28.125C28.6223 26.6162 29.0992 26.8165 29.4508 27.1731C29.8025 27.5296 30 28.0132 30 28.5174C30 29.0216 29.8025 29.5052 29.4508 29.8618C29.0992 30.2183 28.6223 30.4186 28.125 30.4186H6.40125L10.7006 34.778C11.0422 35.1366 11.2312 35.6168 11.2269 36.1153C11.2226 36.6138 11.0254 37.0907 10.6778 37.4432C10.3301 37.7956 9.85987 37.9956 9.36825 37.9999C8.87663 38.0043 8.403 37.8126 8.04938 37.4663L0.549375 29.8616C0.197867 29.505 0.000400543 29.0215 0.000400543 28.5174C0.000400543 28.0133 0.197867 27.5298 0.549375 27.1733L8.04938 19.5685C8.40099 19.2121 8.87782 19.0119 9.375 19.0119C9.87218 19.0119 10.349 19.2121 10.7006 19.5685Z" fill="white"/>
</svg>
