<svg width="24" height="18" viewBox="0 0 24 18" fill="none" xmlns="http://www.w3.org/2000/svg">
<path fill-rule="evenodd" clip-rule="evenodd" d="M16.5523 0.0120726C18.6565 -0.138104 20.2823 1.13482 21.3643 2.60321C22.4544 4.08471 23.2052 6.01912 23.618 7.92136C24.0285 9.82359 24.1389 11.8677 23.7974 13.6102C23.4697 15.2836 22.5946 17.1977 20.6158 17.8115C18.7531 18.3884 17.1203 17.5493 15.9567 16.5338C14.7885 15.5148 13.7996 14.0869 13.0223 12.7485C12.6587 12.1195 12.3174 11.4771 11.999 10.8224C11.6809 11.4766 11.3399 12.1187 10.9768 12.7473C10.1995 14.0869 9.21064 15.5148 8.04241 16.5338C6.87764 17.5493 5.24603 18.3884 3.38331 17.8115C1.40446 17.1977 0.529437 15.2848 0.201736 13.6102C-0.138613 11.8677 -0.0282294 9.82359 0.382259 7.92136C0.793898 6.01912 1.54474 4.08352 2.63592 2.60321C3.71676 1.13482 5.34262 -0.138104 7.4468 0.0120726C9.41991 0.155098 10.8537 1.54125 11.7472 2.71644L12.0001 3.06089L12.2519 2.71525C13.1454 1.54125 14.5792 0.153906 16.5523 0.0120726ZM7.20764 3.57936C6.72471 3.54479 6.09231 3.80104 5.37711 4.77361C4.67112 5.73307 4.08471 7.14902 3.74781 8.70442C3.41206 10.2598 3.36261 11.7783 3.58223 12.8998C3.77195 13.8652 4.07666 14.2121 4.26293 14.3336L4.34112 14.3742L4.37216 14.3861C4.63892 14.4695 5.07816 14.4457 5.82095 13.7973C6.56259 13.1513 7.31917 12.1132 8.02172 10.9046C8.33447 10.3647 8.62538 9.81167 8.88639 9.28009L9.18534 8.65436L9.45325 8.062L9.69012 7.51612L9.89134 7.03103L10.0558 6.61864C9.83329 6.15544 9.5785 5.70968 9.29343 5.28493C8.55294 4.19317 7.81015 3.62345 7.20764 3.58055M16.7915 3.58055C16.1889 3.62465 15.4462 4.19436 14.7057 5.28612C14.4206 5.71086 14.1658 6.15662 13.9433 6.61983L14.2043 7.26702L14.4228 7.78429L14.5458 8.06319L14.8149 8.65555L15.1139 9.28129C15.3749 9.81286 15.6646 10.3659 15.9774 10.9058C16.6799 12.1144 17.4377 13.1525 18.177 13.7985C18.868 14.4016 19.2958 14.4636 19.5683 14.4028L19.6281 14.3873C19.7776 14.3396 20.1835 14.0905 20.4169 12.8998C20.6353 11.7795 20.5882 10.261 20.2513 8.70442C19.9155 7.15021 19.3291 5.73427 18.622 4.77481C17.9056 3.80224 17.2744 3.54717 16.7915 3.58055Z" fill="white"/>
</svg>
